<svg width="48" height="48" viewBox="0 0 48 48" fill="none" xmlns="http://www.w3.org/2000/svg">
    <g clip-path="url(#clip0_282_160)">
    <path d="M43.05 35.46H39.42C38.4 35.46 37.57 34.63 37.57 33.61V20.83C37.57 19.81 38.4 18.98 39.42 18.98H43.05C45.65 18.98 47.77 21.1 47.77 23.7V30.74C47.76 33.34 45.65 35.46 43.05 35.46ZM41.26 31.77H43.05C43.62 31.77 44.08 31.31 44.08 30.75V23.7C44.08 23.13 43.62 22.68 43.05 22.68H41.26V31.77ZM8.58998 35.46H4.94998C2.34998 35.46 0.22998 33.34 0.22998 30.74V23.7C0.22998 21.1 2.34998 18.98 4.94998 18.98H8.57998C9.59998 18.98 10.43 19.81 10.43 20.83V33.62C10.43 34.63 9.60998 35.46 8.58998 35.46ZM4.94998 22.67C4.37998 22.67 3.91998 23.13 3.91998 23.69V30.73C3.91998 31.3 4.37998 31.75 4.94998 31.75H6.73998V22.66H4.94998V22.67Z" fill="#CDA954"/>
    <path d="M42.0598 22.67C41.0398 22.67 40.2098 21.84 40.2098 20.82V19.44C40.2098 10.75 33.1398 3.68 24.4498 3.68H23.5398C14.8398 3.68 7.76982 10.75 7.76982 19.44V20.82C7.76982 21.84 6.93982 22.67 5.91982 22.67C4.89982 22.67 4.06982 21.84 4.06982 20.82V19.44C4.08982 8.73 12.8198 0 23.5498 0H24.4598C35.1798 0 43.8998 8.73 43.8998 19.45V20.83C43.8998 21.85 43.0798 22.67 42.0598 22.67ZM38.6998 45.3H30.6698C29.6498 45.3 28.8198 44.47 28.8198 43.45C28.8198 42.43 29.6498 41.6 30.6698 41.6H38.6998C40.0798 41.6 41.1998 40.48 41.1998 39.11V33.61C41.1998 32.59 42.0298 31.76 43.0498 31.76C44.0698 31.76 44.8998 32.59 44.8998 33.61V39.11C44.8998 42.53 42.1198 45.3 38.6998 45.3Z" fill="#CDA954"/>
    <path d="M29.24 48.0002H24.3C22.49 48.0002 21.02 46.5302 21.02 44.7202V42.2102C21.02 40.4002 22.49 38.9302 24.3 38.9302H29.24C31.05 38.9302 32.52 40.4002 32.52 42.2102V44.7202C32.52 46.5302 31.05 48.0002 29.24 48.0002ZM24.71 44.3102H28.83V42.6202H24.71V44.3102Z" fill="#CDA954"/>
    </g>
    <defs>
    <clipPath id="clip0_282_160">
    <rect width="48" height="48" fill="white"/>
    </clipPath>
    </defs>
    </svg>
    