<svg xmlns="http://www.w3.org/2000/svg" width="16" height="16" viewBox="0 0 16 16" fill="none">
  <path fill-rule="evenodd" clip-rule="evenodd" d="M7.86726 3.38214L6.77497 5.58055C6.51287 6.10807 6.00926 6.47397 5.42657 6.56022L2.99822 6.91971L4.7515 8.63788C5.1722 9.05016 5.36456 9.6422 5.26654 10.223L4.85803 12.6436L7.0339 11.5071C7.55601 11.2344 8.17851 11.2344 8.70061 11.5071L10.8765 12.6436L10.468 10.223C10.3699 9.64219 10.5623 9.05016 10.983 8.63788L12.7363 6.91971L10.3079 6.56022C9.72526 6.47397 9.22164 6.10807 8.95954 5.58055L7.86726 3.38214ZM8.46429 2.03672C8.21916 1.54334 7.51536 1.54334 7.27022 2.03671L5.76001 5.07627C5.66294 5.27164 5.47641 5.40716 5.2606 5.43911L1.90314 5.93613C1.35816 6.01681 1.14067 6.68616 1.53415 7.07176L3.95825 9.44733C4.11407 9.60003 4.18531 9.8193 4.14901 10.0344L3.58419 13.3811C3.49251 13.9244 4.0619 14.3381 4.55021 14.083L7.55861 12.5116C7.75198 12.4106 7.98254 12.4106 8.17591 12.5116L11.1843 14.083C11.6726 14.3381 12.242 13.9244 12.1503 13.3811L11.5855 10.0344C11.5492 9.8193 11.6204 9.60003 11.7763 9.44733L14.2004 7.07176C14.5938 6.68616 14.3764 6.01681 13.8314 5.93613L10.4739 5.43911C10.2581 5.40716 10.0716 5.27164 9.9745 5.07627L8.46429 2.03672Z" fill="#78849C"/>
</svg>