<svg width="24" height="24" viewBox="0 0 24 24" fill="none" xmlns="http://www.w3.org/2000/svg">
<path d="M7.28994 11.7102C7.3829 11.8039 7.4935 11.8783 7.61536 11.9291C7.73722 11.9798 7.86793 12.006 7.99994 12.006C8.13195 12.006 8.26266 11.9798 8.38452 11.9291C8.50638 11.8783 8.61698 11.8039 8.70994 11.7102C8.80367 11.6172 8.87806 11.5066 8.92883 11.3848C8.9796 11.2629 9.00574 11.1322 9.00574 11.0002C9.00574 10.8682 8.9796 10.7375 8.92883 10.6156C8.87806 10.4937 8.80367 10.3831 8.70994 10.2902L6.40994 8.00019H19.9999C20.2652 8.00019 20.5195 7.89483 20.707 7.70729C20.8946 7.51976 20.9999 7.2654 20.9999 7.00019C20.9999 6.73497 20.8946 6.48062 20.707 6.29308C20.5195 6.10554 20.2652 6.00019 19.9999 6.00019H6.40994L8.70994 3.71019C8.89824 3.52188 9.00403 3.26649 9.00403 3.00019C9.00403 2.73388 8.89824 2.47849 8.70994 2.29019C8.52164 2.10188 8.26624 1.99609 7.99994 1.99609C7.73364 1.99609 7.47824 2.10188 7.28994 2.29019L3.28994 6.29019C3.19621 6.38315 3.12182 6.49375 3.07105 6.61561C3.02028 6.73747 2.99414 6.86817 2.99414 7.00019C2.99414 7.1322 3.02028 7.2629 3.07105 7.38476C3.12182 7.50662 3.19621 7.61722 3.28994 7.71019L7.28994 11.7102ZM16.7099 12.2902C16.5216 12.1019 16.2662 11.9961 15.9999 11.9961C15.7336 11.9961 15.4782 12.1019 15.2899 12.2902C15.1016 12.4785 14.9958 12.7339 14.9958 13.0002C14.9958 13.2665 15.1016 13.5219 15.2899 13.7102L17.5899 16.0002H3.99994C3.73472 16.0002 3.48037 16.1055 3.29283 16.2931C3.1053 16.4806 2.99994 16.735 2.99994 17.0002C2.99994 17.2654 3.1053 17.5198 3.29283 17.7073C3.48037 17.8948 3.73472 18.0002 3.99994 18.0002H17.5899L15.2899 20.2902C15.1962 20.3831 15.1218 20.4937 15.071 20.6156C15.0203 20.7375 14.9941 20.8682 14.9941 21.0002C14.9941 21.1322 15.0203 21.2629 15.071 21.3848C15.1218 21.5066 15.1962 21.6172 15.2899 21.7102C15.3829 21.8039 15.4935 21.8783 15.6154 21.9291C15.7372 21.9798 15.8679 22.006 15.9999 22.006C16.132 22.006 16.2627 21.9798 16.3845 21.9291C16.5064 21.8783 16.617 21.8039 16.7099 21.7102L20.7099 17.7102C20.8037 17.6172 20.8781 17.5066 20.9288 17.3848C20.9796 17.2629 21.0057 17.1322 21.0057 17.0002C21.0057 16.8682 20.9796 16.7375 20.9288 16.6156C20.8781 16.4937 20.8037 16.3831 20.7099 16.2902L16.7099 12.2902Z" fill="#CDA954"/>
</svg>
